<svg xmlns="http://www.w3.org/2000/svg" xmlns:xlink="http://www.w3.org/1999/xlink" viewBox="0 0 118.048 118.095"><defs><style>.a,.d{fill:#fff;}.b,.c{fill:#27ae60;}.b,.d{fill-rule:evenodd;}.e{filter:url(#a);}</style><filter id="a" x="0" y="0" width="118.048" height="118.095" filterUnits="userSpaceOnUse"><feOffset dy="3" input="SourceAlpha"/><feGaussianBlur stdDeviation="3" result="b"/><feFlood flood-opacity="0.161"/><feComposite operator="in" in2="b"/><feComposite in="SourceGraphic"/></filter></defs><g transform="translate(-288.994 -259.448)"><g class="e" transform="matrix(1, 0, 0, 1, 288.99, 259.45)"><path class="a" d="M0,50.024A50.023,50.023,0,1,1,93.543,74.706l6.551,23.539h0L77.366,91.921A50.031,50.031,0,0,1,0,50.024Z" transform="translate(109.05 6) rotate(90)"/></g><g transform="translate(305.371 272.721)"><g transform="translate(0 1.078)"><g transform="translate(0 0)"><path class="b" d="M49.041,959.362a42.033,42.033,0,0,0-34.888,65.49l-4.942,16.492a.978.978,0,0,0,1.255,1.2l16.155-5.575a42.043,42.043,0,1,0,22.419-77.612Zm0,1.955a40.085,40.085,0,1,1-21.759,73.758.978.978,0,0,0-.851-.1l-14.8,5.107,4.527-15.107a.978.978,0,0,0-.129-.831,40.084,40.084,0,0,1,33.011-62.824Z" transform="translate(-7 -959.362)"/></g></g><path class="c" d="M0,42A42,42,0,1,1,78.531,62.717l5.5,19.762h0L64.95,77.169A42,42,0,0,1,0,42Z" transform="translate(84.644) rotate(90)"/><path class="d" d="M34.09,976.374a1,1,0,0,0-.122.03c-4.175,1.282-6.994,3.494-8.524,6.325a14.4,14.4,0,0,0-1.069,9.716c1.37,7.026,6.358,14.8,12.68,21.265s13.984,11.611,21.051,13.077a14.582,14.582,0,0,0,9.869-1.008c2.931-1.535,5.3-4.385,6.813-8.646a.978.978,0,0,0-.4-1.13L60.4,1007.233a.984.984,0,0,0-.092-.061l-.061-.061h-.031l-.061-.03h-.031a.98.98,0,0,0-.153-.092h-.122a1.009,1.009,0,0,0-.825.214q-.016.03-.031.061a.981.981,0,0,0-.153.183l-3.605,3.575c-6.261-2.947-10.905-8.112-15.032-15.093l3.33-3.33.153-.153c.021-.019.042-.04.061-.061h.031c.011-.02.021-.04.031-.061l.031-.03q.016-.03.031-.061c0-.01,0-.02,0-.03l.031-.03c.011-.02.021-.04.031-.061l.031-.03c0-.02,0-.04,0-.061s0-.041,0-.061l.031-.03c0-.02,0-.04,0-.061s0-.02,0-.03,0-.041,0-.061,0-.02,0-.03,0-.041,0-.061,0-.02,0-.03,0-.04,0-.061,0-.02,0-.03-.02-.041-.03-.061,0-.02,0-.03-.02-.041-.031-.061,0-.02,0-.03c-.019-.021-.04-.041-.061-.061q0-.015,0-.03l-.031-.03a.977.977,0,0,0-.122-.183l-.031-.03L35.1,976.842a1.108,1.108,0,0,0-1.008-.458Z" transform="translate(-6.818 -959.786)"/></g></g></svg>